<?xml version="1.0" standalone="no"?>
<!DOCTYPE svg PUBLIC "-//W3C//DTD SVG 20010904//EN"
 "http://www.w3.org/TR/2001/REC-SVG-20010904/DTD/svg10.dtd">
<svg version="1.0" xmlns="http://www.w3.org/2000/svg"
 width="800.000000pt" height="800.000000pt" viewBox="0 0 800.000000 800.000000"
 preserveAspectRatio="xMidYMid meet">

<g transform="translate(0.000000,800.000000) scale(0.100000,-0.100000)"
fill="#000000" stroke="none">
<path d="M1437 6046 c2 -1087 1 -1145 -15 -1151 -10 -3 -40 0 -68 5 -27 6 -67
13 -89 16 -35 4 -38 3 -22 -8 10 -7 26 -18 35 -25 14 -10 15 -16 4 -45 -6 -19
-12 -44 -12 -56 0 -11 -5 -24 -10 -27 -16 -10 -12 -25 8 -25 12 0 13 -3 4 -8
-6 -5 -14 -27 -16 -49 -2 -23 -7 -47 -11 -53 -4 -7 -9 -33 -10 -59 -2 -46 -16
-117 -35 -175 -5 -17 -18 -74 -29 -126 -11 -52 -27 -131 -37 -175 -9 -44 -21
-85 -26 -92 -5 -6 -5 -14 0 -17 5 -3 7 -19 4 -36 -3 -24 -9 -31 -22 -27 -15 4
-19 -3 -22 -44 -1 -27 1 -49 6 -49 5 0 -1 -12 -15 -26 -13 -14 -19 -25 -14
-24 22 5 27 -1 14 -17 -12 -15 -12 -16 1 -8 13 8 13 7 0 -9 -8 -10 -15 -28
-16 -40 -7 -67 -18 -132 -24 -136 -8 -6 -40 -141 -40 -169 0 -12 -9 -40 -19
-62 -11 -21 -14 -36 -8 -33 8 5 7 2 0 -7 -7 -7 -13 -30 -13 -51 0 -21 -5 -38
-11 -38 -8 0 -8 -4 0 -14 7 -8 8 -17 3 -20 -5 -3 -12 -20 -16 -38 -3 -18 -8
-42 -11 -53 -10 -41 -26 -121 -31 -159 -4 -22 -15 -59 -25 -84 -11 -24 -19
-59 -19 -78 0 -22 -6 -37 -16 -41 -10 -3 -12 -8 -5 -12 7 -5 6 -23 -3 -58 -8
-29 -11 -54 -8 -58 3 -3 -3 -12 -14 -21 -16 -13 -17 -15 -1 -10 10 3 17 0 17
-9 0 -10 -9 -12 -35 -8 -23 4 -35 2 -35 -6 0 -6 9 -11 19 -11 23 0 39 -39 21
-50 -7 -4 -10 -15 -7 -23 3 -8 -1 -37 -10 -64 -8 -26 -15 -59 -14 -73 1 -20
-1 -22 -9 -10 -8 11 -10 3 -8 -30 l2 -45 -36 0 c-38 0 -43 -21 -5 -27 11 -2
22 -10 24 -18 4 -13 3 -13 -7 0 -8 12 -9 10 -5 -10 3 -14 -1 -53 -9 -88 -8
-34 -14 -63 -15 -65 0 -3 -12 -41 -20 -62 -21 -55 -30 -89 -25 -97 3 -5 0 -15
-6 -23 -7 -8 -14 -32 -15 -52 -4 -66 -17 -138 -25 -143 -5 -3 -11 -42 -15 -88
-6 -61 -12 -86 -25 -95 -10 -7 -19 -32 -23 -62 -20 -160 -22 -169 -38 -159 -9
5 -10 -7 -7 -45 3 -28 1 -51 -3 -51 -5 0 -9 -13 -9 -30 0 -16 -4 -30 -10 -30
-5 0 -10 -20 -10 -44 0 -25 -4 -47 -9 -50 -4 -3 -11 -32 -15 -64 -4 -33 -10
-62 -13 -66 -4 -4 -8 -14 -9 -23 -2 -9 -10 -39 -19 -67 -10 -28 -18 -55 -20
-61 -4 -18 -25 -69 -35 -87 -11 -20 -13 -48 -4 -48 12 0 33 34 34 53 0 9 4 17
8 17 17 0 49 35 44 49 -2 8 0 11 6 8 8 -6 15 6 26 43 1 3 8 25 17 50 18 49 41
126 45 150 1 8 9 47 18 85 9 39 25 108 36 155 68 312 105 472 131 570 5 19 16
69 24 110 8 41 22 102 30 135 9 33 25 103 35 155 11 52 27 127 35 165 9 39 18
79 20 90 2 11 11 47 20 80 8 33 18 74 21 90 5 27 28 132 55 250 19 82 46 205
69 315 10 47 25 110 33 140 8 30 23 96 32 145 9 50 19 97 23 105 3 8 7 22 8
30 2 8 5 24 8 35 2 11 5 28 5 38 1 10 5 16 10 13 4 -3 8 7 8 22 0 48 28 164
37 155 5 -4 6 -3 3 4 -7 12 9 99 44 241 11 45 22 95 25 110 2 15 15 74 29 132
13 58 36 159 51 225 14 66 30 132 34 147 9 28 -9 56 -25 40 -4 -4 -5 4 -2 18
3 14 9 44 13 67 8 52 23 65 66 61 l33 -3 3 -75 c2 -44 -2 -84 -9 -97 -10 -18
-9 -26 2 -39 12 -15 14 -324 16 -2053 l1 -2036 1172 -3 c732 -1 1179 -6 1190
-12 13 -7 20 -6 24 3 5 9 7 9 12 0 8 -17 164 -18 164 -2 0 8 4 8 13 0 8 -6 17
-7 23 -2 5 6 591 10 1399 12 765 1 1397 3 1405 5 13 3 14 17 10 76 -3 40 -7
1529 -8 3308 l-3 3235 -2672 0 c-1470 0 -2193 -1 -1608 -2 766 -2 1068 -6
1078 -14 15 -13 18 -49 3 -49 -5 0 -7 7 -4 15 5 13 -116 15 -1054 15 -951 0
-1062 -2 -1076 -16 -14 -13 -16 -51 -16 -262 0 -136 0 -1595 0 -3241 0 -2606
2 -2997 14 -3009 18 -19 45 -21 290 -21 110 -1 197 -3 194 -6 -2 -3 -122 -7
-266 -9 l-262 -4 0 286 c1 158 -2 1637 -4 3287 -3 1650 -2 3005 2 3011 4 6 14
14 22 17 8 3 2 6 -15 6 l-30 1 2 -1144z m5386 -436 c-2 -861 -3 -2345 -3
-3297 l0 -1733 -132 1 c-73 1 -196 5 -273 8 l-140 8 220 2 c259 3 262 3 281
22 13 13 14 414 14 3260 0 3035 -1 3245 -17 3257 -13 9 -334 12 -1527 12
-1390 0 -1511 -1 -1528 -17 -17 -16 -18 -130 -18 -3253 0 -2573 3 -3240 13
-3253 18 -24 35 -25 321 -26 143 -1 257 -3 255 -5 -2 -2 -142 -6 -311 -10
l-308 -6 0 3300 0 3300 1577 -2 1578 -3 -2 -1565z m-4043 1511 c14 -4 -56 -9
-155 -11 -256 -4 -258 -5 -280 -18 -18 -10 -18 -11 -2 -12 9 0 17 -4 17 -10 0
-13 -73 -13 -86 0 -8 8 -15 6 -23 -4 -11 -13 -9 -15 8 -11 12 2 21 0 21 -6 0
-5 -11 -7 -25 -5 -22 4 -25 2 -21 -18 3 -14 -1 -23 -9 -23 -14 0 -13 24 4 54
8 16 5 19 -20 21 -25 2 -29 -1 -29 -22 0 -13 7 -27 16 -30 8 -3 12 -11 8 -17
-3 -6 0 -15 7 -20 10 -6 8 -9 -8 -9 -15 0 -23 6 -23 18 -1 16 -1 16 -14 0 -7
-10 -25 -18 -40 -18 -26 0 -33 10 -18 24 12 13 8 73 -5 73 -7 0 -10 -4 -7 -9
3 -4 2 -13 -2 -20 -13 -20 -14 -61 -2 -75 8 -10 -3 -13 -59 -13 -43 0 -82 -6
-101 -16 -18 -8 -36 -13 -41 -10 -5 4 -11 0 -14 -6 -3 -10 -7 -10 -20 0 -9 8
-21 11 -28 7 -8 -6 -8 -9 1 -15 8 -5 4 -15 -13 -33 -20 -19 -27 -22 -31 -10
-4 9 -2 12 7 7 6 -4 9 -4 5 1 -4 4 -3 15 3 24 6 9 -1 3 -15 -14 -15 -16 -41
-44 -57 -61 -22 -22 -27 -34 -19 -39 7 -4 16 -1 21 6 6 10 9 11 9 2 0 -7 -9
-22 -20 -33 -11 -11 -20 -27 -20 -35 0 -18 -26 -20 -33 -2 -4 9 -8 8 -16 -3
-9 -12 -11 -10 -12 10 0 14 -3 19 -6 12 -10 -25 7 -123 20 -115 7 4 5 -2 -3
-12 -9 -11 -10 -16 -2 -11 6 4 12 3 12 -1 0 -20 -27 -33 -68 -33 l-44 0 6 38
c11 57 17 73 26 67 13 -8 23 14 12 28 -5 7 -12 21 -16 32 -3 12 -4 9 -2 -7 2
-16 -3 -36 -10 -45 -13 -18 -18 25 -19 195 0 23 -4 42 -9 42 -6 0 -1 7 10 15
11 9 13 13 4 10 -12 -4 -15 5 -15 42 -1 27 -5 67 -9 91 l-9 42 619 -1 c341 -1
630 -5 644 -8z m213 2 c-7 -2 -19 -2 -25 0 -7 3 -2 5 12 5 14 0 19 -2 13 -5z
m657 -173 c0 -82 -4 -150 -8 -150 -4 0 -8 67 -7 150 0 82 3 150 8 150 4 0 7
-67 7 -150z m-1430 110 c0 -5 -5 -10 -11 -10 -5 0 -7 -5 -3 -12 4 -7 3 -8 -4
-4 -17 10 -15 36 3 36 8 0 15 -4 15 -10z m484 -8 c3 -5 -1 -9 -9 -9 -8 0 -12
4 -9 9 3 4 7 8 9 8 2 0 6 -4 9 -8z m-597 -22 c1 -11 -2 -22 -6 -24 -6 -4 -7
26 -2 42 3 8 7 -1 8 -18z m3026 -55 c9 -8 20 -15 26 -15 6 0 11 -9 11 -20 0
-29 44 -70 75 -70 36 0 75 42 75 80 0 27 3 30 20 25 16 -5 19 -3 14 12 -19 60
43 -53 163 -297 74 -151 150 -304 168 -340 30 -59 69 -170 60 -170 -7 0 74
-223 89 -246 8 -12 17 -33 18 -47 2 -14 16 -38 32 -53 16 -17 23 -30 16 -32
-6 -2 -17 4 -24 13 -11 16 -13 16 -13 1 0 -9 4 -16 9 -16 5 0 6 -10 3 -22 -5
-17 -4 -19 4 -9 11 17 41 24 41 9 0 -6 -6 -8 -14 -5 -10 4 -12 0 -9 -14 5 -17
2 -19 -23 -14 -16 4 -35 7 -41 7 -7 1 -13 7 -13 14 0 20 -19 27 -37 12 -14
-11 -16 -11 -8 2 17 27 13 38 -11 35 -24 -2 -24 -2 -7 18 10 12 12 17 4 12 -9
-5 -18 -2 -27 9 -6 9 -21 18 -32 19 -14 1 -19 7 -17 19 2 10 -2 18 -10 18 -8
0 -22 14 -32 30 -9 17 -21 30 -26 30 -5 0 -7 6 -4 14 4 10 -1 13 -16 10 -12
-2 -17 -2 -11 1 12 6 -107 135 -125 135 -6 0 -11 5 -11 11 0 5 -5 7 -12 3 -7
-4 -8 -3 -4 5 5 7 -1 20 -15 32 -12 10 -19 19 -15 19 4 0 1 6 -6 14 -7 8 -16
12 -20 9 -5 -2 -8 0 -8 5 0 5 -38 48 -85 97 -47 48 -85 92 -85 97 0 6 -7 7
-16 4 -8 -3 -12 -2 -9 3 10 17 -12 21 -25 6 -25 -30 -39 -682 -21 -960 5 -66
5 -126 1 -134 -15 -29 -19 64 -25 509 -3 250 -8 480 -10 510 -14 169 -22 537
-13 585 4 17 10 46 14 65 l8 35 7 -27 c4 -15 14 -34 22 -43z m-2953 -10 c0 -8
3 -14 8 -14 24 4 62 -2 58 -10 -6 -9 -55 -3 -71 10 -6 4 -17 4 -25 -1 -20 -13
-30 -12 -30 0 0 6 9 10 20 10 11 0 20 5 20 10 0 6 5 10 10 10 6 0 10 -7 10
-15z m-19 -54 c108 -55 162 -142 167 -268 4 -72 1 -89 -22 -140 -29 -62 -54
-95 -66 -88 -4 3 -10 -4 -13 -15 -4 -14 -10 -18 -23 -13 -13 5 -15 3 -9 -7 5
-9 4 -11 -4 -6 -9 6 -9 11 0 22 6 7 15 12 19 9 4 -3 11 2 14 11 3 9 11 12 18
8 8 -5 9 -2 5 10 -4 10 -3 15 3 11 6 -3 10 1 10 9 0 8 7 21 15 29 39 40 45
179 12 252 -51 108 -143 169 -257 169 -150 0 -266 -104 -278 -250 -6 -83 11
-144 59 -204 55 -69 129 -103 228 -105 51 -1 83 3 98 13 12 7 28 12 34 10 25
-8 -66 -41 -126 -46 -160 -12 -297 97 -326 261 -11 59 -10 75 5 124 37 115
107 189 216 224 48 16 174 4 221 -20z m57 14 c2 -2 0 -5 -5 -8 -4 -3 -21 1
-38 8 l-30 14 35 -6 c19 -3 36 -7 38 -8z m63 -32 c13 -17 13 -17 -6 -3 -11 8
-22 16 -24 17 -2 2 0 3 6 3 6 0 17 -8 24 -17z m-30 -10 c13 -17 13 -17 -6 -3
-11 8 -22 16 -24 17 -2 2 0 3 6 3 6 0 17 -8 24 -17z m-481 -43 c-6 -11 -13
-20 -16 -20 -2 0 0 9 6 20 6 11 13 20 16 20 2 0 0 -9 -6 -20z m1048 -57 c51
-42 82 -98 82 -154 0 -83 -85 -181 -156 -178 -26 1 -26 2 7 8 72 14 139 96
139 171 0 68 -64 148 -133 165 -44 11 -114 -4 -147 -32 -70 -58 -88 -146 -45
-218 28 -48 65 -76 115 -86 l35 -7 -36 -1 c-46 -1 -109 43 -133 94 -28 58 -19
152 18 196 70 85 179 103 254 42z m832 -70 c0 -32 -3 -43 -9 -34 -5 7 -7 21
-6 30 2 9 4 24 4 34 1 9 3 17 6 17 3 0 5 -21 5 -47z m-1956 -42 c-4 -17 -9
-30 -11 -27 -3 2 -2 19 2 36 9 41 17 33 9 -9z m1949 -312 c-8 -8 -9 71 -2 166
2 28 5 5 6 -54 2 -57 0 -108 -4 -112z m2185 64 c50 -74 92 -144 92 -154 0 -16
-77 79 -96 119 -9 19 -27 50 -40 69 -13 20 -24 43 -24 51 0 8 11 -2 25 -22 13
-20 33 -48 43 -63z m-4146 25 c-8 -8 -9 -4 -5 13 4 13 8 18 11 10 2 -7 -1 -18
-6 -23z m-47 -87 c3 -5 2 -12 -3 -15 -5 -3 -9 1 -9 9 0 17 3 19 12 6z m1137
-50 c20 -17 24 -71 8 -100 -16 -31 -65 -46 -100 -31 -33 14 -43 38 -38 91 5
59 81 82 130 40z m873 -23 c-7 -34 -15 -34 -15 1 0 18 4 30 9 26 6 -3 8 -15 6
-27z m2314 -78 c11 -24 11 -24 -3 -6 -9 11 -16 24 -16 30 0 12 5 7 19 -24z
m-3807 -43 c68 -30 141 -110 164 -179 24 -72 16 -191 -16 -244 -13 -21 -28
-41 -32 -42 -5 -2 -6 -7 -3 -11 2 -5 -7 -14 -20 -21 -14 -7 -25 -17 -25 -20 0
-4 -13 -13 -30 -20 -16 -7 -30 -15 -30 -19 0 -4 -21 -13 -47 -21 -181 -56
-367 62 -393 248 -19 142 58 279 187 331 70 29 177 28 245 -2z m667 -131 c47
-33 81 -96 81 -149 0 -74 -89 -191 -132 -174 -9 4 -7 6 4 6 46 2 118 101 118
162 0 49 -46 123 -92 149 -56 31 -139 25 -190 -14 -40 -30 -68 -88 -68 -142 0
-71 64 -145 138 -160 18 -4 32 -11 32 -16 0 -6 -8 -7 -17 -3 -10 4 -32 11 -49
16 -43 13 -102 75 -110 116 -18 95 19 182 95 224 53 28 136 22 190 -15z m3285
-27 c-8 -13 -24 -1 -24 18 0 13 3 13 15 3 8 -7 12 -16 9 -21z m-2458 -5 c1 -9
0 -13 -4 -10 -3 4 -7 14 -8 22 -1 9 0 13 4 10 3 -4 7 -14 8 -22z m2494 -49 c0
-7 7 -15 15 -19 8 -3 15 -10 15 -16 0 -5 -7 -10 -15 -10 -8 0 -15 4 -15 9 0 4
-11 6 -25 3 -15 -2 -25 0 -25 7 0 6 7 11 16 11 13 0 14 3 4 15 -16 19 -3 40
16 24 8 -6 14 -17 14 -24z m-2499 2 c-10 -9 -11 -8 -5 6 3 10 9 15 12 12 3 -3
0 -11 -7 -18z m264 -57 c295 -136 1111 -575 1168 -628 15 -14 27 -35 27 -47 0
-19 -57 -172 -80 -213 -5 -9 -30 -66 -55 -127 -49 -114 -51 -120 -134 -301
-28 -61 -51 -116 -51 -122 0 -7 -4 -12 -8 -12 -5 0 -14 -18 -21 -40 -6 -22
-21 -45 -32 -50 -14 -8 -18 -17 -14 -30 7 -21 -11 -63 -24 -56 -4 3 -6 -5 -4
-17 3 -14 -3 -30 -16 -41 -12 -11 -21 -28 -21 -39 0 -23 -100 -234 -143 -299
-17 -27 -36 -48 -44 -48 -7 0 -13 -5 -13 -12 0 -26 -48 36 -77 99 -56 121 -63
141 -63 172 0 17 -4 31 -9 31 -6 0 -13 21 -17 48 -4 26 -15 64 -25 84 -20 38
-24 134 -8 144 5 2 4 16 -1 30 -6 14 -10 42 -10 63 0 38 -32 125 -50 136 -6 3
-10 19 -10 35 0 15 -39 106 -86 202 -120 239 -121 241 -137 258 -8 8 -22 30
-31 48 -9 17 -20 32 -25 32 -5 0 -11 8 -15 18 -3 9 -10 24 -15 32 -5 8 -13 29
-17 45 l-7 30 -7 -25 c-7 -22 -8 -20 -9 13 -1 26 -5 37 -17 37 -8 0 -13 -4
-10 -8 3 -5 1 -22 -4 -38 -5 -18 -9 102 -9 314 l-1 343 28 -15 c15 -7 59 -28
97 -46z m2575 50 c0 -5 -2 -10 -4 -10 -3 0 -8 5 -11 10 -3 6 -1 10 4 10 6 0
11 -4 11 -10z m-415 -51 c11 -16 1 -19 -13 -3 -7 8 -8 14 -3 14 5 0 13 -5 16
-11z m99 -10 c9 14 56 -36 56 -59 0 -13 9 -22 25 -26 14 -3 25 -12 25 -20 0
-7 8 -18 18 -23 15 -9 15 -12 2 -21 -13 -9 -13 -11 0 -20 8 -5 21 -10 28 -10
6 0 12 -4 12 -8 0 -17 -13 -21 -34 -11 -21 10 -21 10 -1 -8 24 -22 57 -78 49
-85 -2 -3 6 -3 19 -1 37 7 42 -14 11 -42 -15 -14 -24 -25 -20 -25 4 0 4 -6 0
-12 -10 -16 -13 -48 -4 -53 4 -2 7 -21 8 -41 1 -29 -2 -35 -15 -30 -12 5 -13
4 -5 -7 8 -9 9 -32 3 -73 -5 -32 -10 -66 -10 -74 -1 -8 -3 -35 -6 -60 -2 -25
-4 -58 -4 -73 -1 -36 -21 -31 -34 7 -7 22 -5 30 9 41 18 14 18 14 -2 10 -17
-3 -21 1 -17 15 3 11 11 20 18 22 11 2 11 10 -1 38 -8 19 -15 37 -15 40 0 3
-8 13 -16 23 -9 9 -14 20 -11 23 9 9 38 -26 38 -46 0 -10 4 -21 9 -25 6 -3 8
13 5 40 -2 27 0 45 6 45 5 0 10 5 10 10 0 6 -6 10 -12 10 -7 0 -13 11 -13 24
0 13 5 24 10 23 6 -1 9 8 8 21 -2 13 1 21 7 17 6 -3 10 -1 10 4 0 6 -4 11 -10
11 -11 0 -50 -40 -50 -52 0 -4 -5 -8 -11 -8 -6 0 -9 7 -5 15 3 8 1 15 -4 15
-6 0 -10 5 -10 10 0 6 3 9 8 9 39 -6 69 28 32 38 -23 6 -25 14 -9 30 14 14 21
83 8 83 -5 0 -9 -7 -9 -15 0 -8 -4 -15 -10 -15 -13 0 -13 23 -1 36 6 5 4 21
-5 39 l-14 30 5 -34 5 -33 -19 23 c-20 24 -20 24 -35 4 -15 -19 -15 -19 -16
-1 0 14 -5 17 -22 13 -19 -5 -18 -2 10 23 27 23 34 37 36 75 2 25 0 48 -5 51
-5 3 -9 1 -9 -4 0 -11 -30 -25 -38 -18 -2 3 6 19 19 37 l23 32 -32 -23 c-25
-19 -35 -21 -44 -12 -10 10 -8 14 10 18 26 7 26 8 7 38 -11 16 -22 22 -35 19
-12 -3 -20 0 -20 7 0 8 9 11 25 8 14 -3 25 -1 25 6 0 6 7 3 14 -7 8 -11 17
-14 20 -8z m-229 -30 c-10 -15 -25 -10 -19 6 4 8 10 12 15 9 5 -3 7 -10 4 -15z
m89 -4 c3 -8 1 -15 -3 -15 -5 0 -11 7 -15 15 -3 8 -1 15 3 15 5 0 11 -7 15
-15z m84 1 c-7 -8 -16 -12 -21 -9 -11 7 2 23 19 23 12 0 12 -2 2 -14z m-379
-10 c9 -11 9 -16 -1 -22 -7 -4 -10 -4 -6 1 4 4 3 14 -3 22 -6 7 -9 13 -6 13 2
0 10 -6 16 -14z m651 4 c0 -5 -4 -10 -10 -10 -5 0 -10 5 -10 10 0 6 5 10 10
10 6 0 10 -4 10 -10z m-120 -10 c0 -5 -5 -10 -11 -10 -5 0 -7 5 -4 10 3 6 8
10 11 10 2 0 4 -4 4 -10z m-2613 -32 c-3 -7 -5 -2 -5 12 0 14 2 19 5 13 2 -7
2 -19 0 -25z m2313 17 c-7 -8 -17 -12 -23 -8 -6 4 -3 9 9 14 27 11 28 11 14
-6z m128 -3 c6 -18 -15 -14 -22 4 -4 10 -1 14 6 12 6 -2 14 -10 16 -16z m-63
-11 c-3 -6 -11 -11 -17 -11 -6 0 -6 6 2 15 14 17 26 13 15 -4z m105 -36 c14
-15 18 -25 11 -30 -6 -3 -11 0 -11 8 0 10 -9 13 -31 11 -19 -2 -28 0 -24 7 4
6 -1 16 -11 23 -15 11 -13 12 14 8 17 -2 40 -14 52 -27z m407 19 c-3 -3 -12
-4 -19 -1 -8 3 -5 6 6 6 11 1 17 -2 13 -5z m-197 -14 c0 -5 -4 -10 -10 -10 -5
0 -10 5 -10 10 0 6 5 10 10 10 6 0 10 -4 10 -10z m-375 -10 c3 -5 1 -10 -4
-10 -6 0 -11 5 -11 10 0 6 2 10 4 10 3 0 8 -4 11 -10z m85 -25 c0 -8 -7 -15
-15 -15 -8 0 -15 7 -15 15 0 8 7 15 15 15 8 0 15 -7 15 -15z m50 -4 c0 -12
-20 -25 -27 -18 -7 7 6 27 18 27 5 0 9 -4 9 -9z m-2451 -57 c-1 -30 -5 -51 -8
-45 -7 10 -2 101 5 101 3 0 4 -25 3 -56z m2211 44 c45 -15 50 -25 18 -37 -29
-11 -42 -3 -27 15 9 12 5 14 -25 14 -20 0 -36 5 -36 10 0 13 22 13 70 -2z m90
2 c0 -5 -5 -10 -11 -10 -5 0 -7 5 -4 10 3 6 8 10 11 10 2 0 4 -4 4 -10z m70
-17 c0 -16 2 -16 11 -3 9 12 10 11 6 -7 -6 -25 10 -32 19 -9 6 15 33 26 71 30
16 1 19 -2 12 -10 -14 -17 8 -29 26 -14 11 9 15 9 15 1 0 -6 -8 -15 -17 -18
-10 -4 -29 -17 -42 -30 -23 -22 -41 -23 -41 -1 0 6 3 8 7 5 7 -8 43 22 43 36
0 16 -62 -2 -88 -25 -18 -18 -22 -19 -16 -5 5 13 1 17 -21 17 -15 0 -24 4 -20
10 4 6 12 7 18 3 8 -5 8 -2 0 9 -7 8 -10 18 -6 21 12 12 23 7 23 -10z m380
-17 c0 -8 -4 -18 -10 -21 -17 -10 -11 -23 13 -28 15 -3 12 -5 -11 -6 -29 -1
-33 2 -27 19 4 12 2 20 -6 20 -9 0 -8 4 1 15 16 19 40 19 40 1z m-340 -66 c0
-5 -4 -10 -10 -10 -5 0 -10 5 -10 10 0 6 5 10 10 10 6 0 10 -4 10 -10z m410 0
c0 -5 -4 -10 -10 -10 -5 0 -10 5 -10 10 0 6 5 10 10 10 6 0 10 -4 10 -10z
m-310 -35 c5 3 10 -1 10 -9 0 -10 -10 -14 -29 -14 -22 1 -27 5 -24 19 3 12 0
19 -8 20 -8 0 -5 4 6 8 15 6 22 3 27 -11 4 -11 12 -16 18 -13z m-85 -25 c7 0
16 6 19 13 4 6 4 2 2 -10 -2 -13 0 -23 5 -23 18 0 9 -16 -10 -17 -10 -1 -63
-15 -117 -31 -134 -41 -315 -93 -339 -98 -36 -8 38 23 145 61 58 20 121 42
140 50 19 7 56 19 83 25 37 10 45 15 36 26 -6 7 -7 18 -3 25 5 8 9 7 16 -5 5
-9 15 -16 23 -16z m173 -21 c3 -9 -3 -7 -17 6 -19 16 -24 17 -31 5 -5 -8 -12
-11 -16 -7 -4 3 -1 13 6 22 11 13 16 14 33 2 12 -8 23 -20 25 -28z m-22 -24
c1 -8 -2 -15 -7 -15 -5 0 -9 10 -9 22 0 23 12 17 16 -7z m-2579 -37 c-3 -7 -5
-2 -5 12 0 14 2 19 5 13 2 -7 2 -19 0 -25z m-1522 -58 c81 -28 138 -78 176
-155 29 -59 31 -70 27 -147 -4 -86 -30 -164 -51 -151 -6 4 -8 0 -4 -10 6 -15
-9 -34 -19 -24 -6 6 17 57 26 57 12 0 30 85 30 142 0 101 -72 204 -175 249
-98 43 -221 21 -298 -54 -65 -64 -82 -107 -82 -207 0 -75 3 -91 27 -132 61
-103 159 -154 279 -146 38 3 69 2 69 -2 0 -13 -41 -20 -113 -20 -184 0 -324
164 -297 351 13 94 63 171 138 215 96 57 173 66 267 34z m4115 -20 c0 -5 -7
-10 -15 -10 -8 0 -15 5 -15 10 0 6 7 10 15 10 8 0 15 -4 15 -10z m-633 -16
c-3 -3 -12 -4 -19 -1 -8 3 -5 6 6 6 11 1 17 -2 13 -5z m675 -30 c-4 -22 -6
-24 -14 -10 -9 16 -3 36 11 36 5 0 6 -12 3 -26z m-2635 -36 c-3 -7 -5 -2 -5
12 0 14 2 19 5 13 2 -7 2 -19 0 -25z m2587 17 c-4 -8 -8 -15 -10 -15 -2 0 -4
7 -4 15 0 8 4 15 10 15 5 0 7 -7 4 -15z m-2587 -97 c-3 -7 -5 -2 -5 12 0 14 2
19 5 13 2 -7 2 -19 0 -25z m0 -70 c-3 -8 -6 -5 -6 6 -1 11 2 17 5 13 3 -3 4
-12 1 -19z m2890 -143 c0 -8 -4 -12 -9 -9 -5 3 -6 10 -3 15 9 13 12 11 12 -6z
m-227 -87 c0 -13 -4 -70 -9 -128 -5 -58 -12 -143 -16 -190 -3 -47 -13 -161
-21 -255 -8 -93 -19 -233 -24 -310 -6 -77 -12 -148 -14 -157 -2 -10 0 -21 5
-24 5 -3 9 22 9 55 0 34 4 61 10 61 6 0 10 -20 10 -45 0 -46 19 -64 21 -20 3
59 3 59 102 64 22 1 20 46 -2 46 -8 0 -15 7 -16 15 -2 12 6 16 31 16 24 0 30
-3 23 -12 -13 -16 8 -29 39 -25 19 2 23 -1 20 -20 -3 -21 1 -23 37 -24 24 0
40 -5 41 -13 1 -6 2 -23 3 -37 1 -18 7 -25 21 -25 11 0 20 6 20 13 0 9 12 11
40 9 22 -2 40 -8 40 -13 0 -5 8 -9 19 -9 18 0 18 -45 20 -1620 l2 -1620 -763
0 c-704 0 -966 5 -953 18 3 3 20 6 37 7 80 5 129 17 124 32 -3 8 -1 11 4 8 16
-10 66 4 87 23 32 29 115 131 283 352 61 80 119 154 128 165 16 20 58 78 155
213 26 37 47 72 47 79 0 15 -31 32 -47 26 -7 -3 -13 -1 -13 4 0 5 -15 15 -34
23 -19 7 -39 23 -45 34 -8 18 -9 16 -4 -10 6 -35 2 -38 -42 -47 -27 -6 -28 -5
-7 5 25 13 29 40 7 58 -21 18 -19 28 8 32 12 2 22 9 22 16 0 7 5 16 10 20 11
8 45 58 45 67 0 3 7 23 16 45 19 47 16 52 -57 105 l-48 36 -758 -5 c-814 -5
-843 -6 -843 -18 0 -4 -18 -8 -40 -8 -22 0 -40 -4 -40 -10 0 -5 -9 -10 -20
-10 -13 0 -22 -9 -26 -25 -11 -44 37 -71 138 -78 21 -2 41 -6 44 -10 4 -4 19
-7 34 -7 14 0 32 -6 39 -12 11 -11 12 -10 6 2 -4 8 8 -1 26 -20 19 -19 33 -38
31 -43 -2 -4 0 -7 5 -6 16 4 89 -14 110 -27 12 -8 32 -14 43 -14 11 0 23 -7
26 -15 4 -9 19 -15 39 -15 18 0 38 -7 45 -15 9 -11 16 -12 25 -5 9 8 14 7 18
-2 3 -10 9 -10 25 -1 17 10 19 9 15 -8 -3 -10 -9 -19 -14 -19 -5 0 -9 -8 -9
-17 1 -17 1 -17 14 0 16 20 24 21 45 4 46 -39 226 -70 259 -44 7 6 12 6 12 0
0 -5 7 -10 15 -10 8 0 15 4 15 9 0 14 38 9 43 -6 4 -10 -4 -15 -24 -18 -17 -3
-29 0 -29 6 0 6 -5 4 -10 -4 -6 -10 -10 -11 -10 -3 0 14 -26 13 -49 -1 -9 -6
-12 -5 -7 2 3 6 -1 9 -11 8 -38 -6 -10 -21 40 -21 28 -1 57 -4 63 -7 16 -11
107 6 112 20 2 7 -6 12 -20 13 -18 0 -15 3 15 16 29 12 37 20 34 34 -3 10 2
26 10 36 8 10 11 11 7 3 -7 -13 -5 -13 9 -1 22 17 24 -4 2 -25 -8 -9 -15 -20
-15 -25 0 -14 26 -11 28 4 7 53 6 62 -7 62 -14 0 -32 34 -24 48 7 11 48 8 62
-5 11 -11 12 -10 6 2 -5 8 -5 12 0 8 4 -4 14 -3 21 3 8 7 14 7 19 -1 8 -13 -4
-32 -16 -25 -5 4 -9 -13 -9 -36 0 -56 -21 -79 -74 -79 l-41 0 23 -18 24 -18
-41 -13 c-23 -6 -41 -16 -41 -21 0 -6 -14 -10 -30 -10 -17 0 -47 -7 -67 -15
-19 -8 -59 -21 -87 -29 -69 -19 -205 -70 -263 -98 -39 -19 -47 -27 -45 -46 2
-12 9 -22 17 -22 7 0 16 -7 19 -16 4 -10 2 -13 -7 -7 -18 11 23 -49 46 -67 17
-14 18 -20 7 -39 -8 -15 -8 -21 -1 -17 7 5 11 -4 11 -23 0 -16 5 -33 10 -36
13 -8 3 -25 -13 -25 -7 0 -6 4 3 11 13 9 13 10 0 6 -10 -3 -15 -16 -14 -38 1
-19 -1 -28 -3 -20 -5 11 -7 11 -15 0 -6 -10 -7 -6 -3 11 6 23 5 24 -6 5 -17
-27 -47 -52 -86 -71 -18 -9 -33 -22 -33 -30 0 -7 -6 -11 -14 -8 -7 3 -16 -2
-20 -11 -3 -9 -10 -14 -15 -11 -5 3 -14 -1 -21 -9 -7 -8 -21 -15 -32 -15 -10
0 -21 -7 -24 -15 -4 -8 -14 -15 -23 -15 -9 0 -23 -6 -30 -13 -11 -10 -13 -9
-7 3 5 9 2 8 -7 -2 -8 -10 -21 -18 -29 -18 -9 0 -31 -7 -49 -15 -26 -11 -29
-15 -14 -16 13 -1 10 -4 -10 -8 -21 -4 -30 -12 -30 -26 0 -22 -31 -33 -47 -17
-10 10 -58 -7 -58 -20 0 -5 34 -8 75 -8 78 0 79 1 78 47 -1 7 3 10 8 7 5 -3 6
-17 3 -30 l-7 -26 164 2 c171 2 203 6 194 20 -3 5 0 12 6 16 8 4 9 3 5 -5 -13
-20 26 -26 40 -6 13 18 14 17 14 -7 l0 -26 -332 -1 c-183 0 -375 -4 -427 -7
-74 -6 -95 -4 -103 7 -5 9 -8 263 -6 658 l3 644 72 166 c40 91 81 184 91 206
11 22 37 76 57 120 21 44 38 84 37 88 -1 4 6 3 17 -3 29 -15 31 -13 31 20 0
17 5 30 10 30 6 0 10 -4 10 -10 0 -5 5 -10 10 -10 6 0 10 9 10 21 0 16 5 20
28 17 18 -2 27 -8 26 -20 -1 -10 2 -15 7 -12 5 3 9 11 8 17 -3 24 1 35 17 41
10 4 13 2 8 -7 -5 -9 -4 -9 6 0 9 9 17 9 26 2 8 -7 14 -6 20 2 5 8 3 10 -7 5
-8 -4 -5 0 6 9 13 10 29 14 45 10 32 -8 51 -26 21 -20 -12 2 -19 0 -16 -5 7
-12 30 -7 49 12 12 12 13 18 3 21 -6 3 -3 6 8 6 17 1 17 3 5 11 -12 8 -8 10
15 11 17 1 34 1 39 0 21 -4 45 12 54 37 8 26 9 26 14 4 4 -14 2 -20 -4 -15 -7
3 -8 1 -4 -6 4 -6 11 -9 15 -7 4 3 33 6 64 7 31 1 57 6 57 11 0 4 5 8 11 8 5
0 8 -4 5 -9 -7 -10 20 -9 30 2 4 4 15 7 25 7 9 0 19 10 22 22 5 18 8 19 22 8
14 -12 18 -11 26 1 8 10 9 9 4 -8 -4 -15 -2 -21 9 -19 9 1 19 5 22 9 4 4 22 7
40 7 18 0 35 4 38 9 6 10 24 9 41 -1 6 -3 19 -2 30 2 12 4 29 1 42 -7 14 -9
23 -11 28 -4 10 16 23 13 28 -6 3 -12 5 -10 6 7 1 18 4 21 10 11 7 -10 18 -12
47 -5 54 11 59 11 56 -4 -1 -8 2 -11 8 -7 6 3 8 11 5 16 -11 16 7 10 20 -8 9
-13 14 -13 20 -3 6 9 4 11 -6 5 -10 -6 -11 -5 -3 4 11 12 47 4 39 -9 -3 -4 11
-6 29 -3 28 4 37 0 47 -18 l12 -23 19 24 c14 18 21 21 27 11 5 -8 27 -12 57
-11 72 3 74 2 74 -22 1 -22 1 -22 12 -4 6 10 11 47 11 82 0 35 2 62 4 60 2 -2
8 -35 12 -72 5 -38 18 -121 30 -184 46 -240 62 -338 67 -415 4 -44 12 -107 18
-140 l12 -60 74 -46 c97 -60 120 -67 120 -40 0 12 5 21 11 21 8 0 7 6 -2 17
-10 11 -10 14 -1 9 6 -4 12 -5 12 -2 0 2 3 13 6 23 6 15 4 16 -7 6 -18 -18
-39 -16 -39 2 0 8 9 15 19 15 23 0 34 25 22 48 -4 9 -6 29 -4 45 2 15 0 27 -4
27 -4 0 -9 46 -11 102 -1 56 -7 107 -13 114 -11 13 -15 137 -4 154 3 5 2 10
-3 10 -5 0 -9 15 -10 33 0 50 -12 249 -17 274 -2 13 -7 28 -11 34 -5 8 -3 9 6
4 9 -5 11 -4 6 3 -11 18 -36 120 -36 148 0 17 -4 23 -12 18 -6 -4 -8 -3 -5 4
4 5 1 23 -7 39 -18 37 -37 92 -43 125 -3 15 -11 33 -19 39 -8 6 -14 22 -14 35
0 12 -4 25 -9 28 -11 7 -9 24 3 46 5 8 6 12 2 8 -12 -10 -66 97 -66 131 0 16
-5 31 -12 33 -6 2 -12 20 -12 40 -1 20 -4 34 -7 32 -4 -2 -14 11 -23 30 -18
38 -20 50 -8 42 5 -3 9 1 9 9 0 8 -3 12 -7 10 -3 -2 -11 9 -17 26 -6 16 -7 27
-2 24 5 -4 6 1 3 9 -3 9 -9 14 -13 12 -3 -2 -6 18 -6 44 -1 27 2 47 6 44 13
-8 3 25 -12 43 -20 23 -25 159 -7 165 7 2 30 3 52 2 21 -1 33 2 26 6 -9 6 -10
12 -1 26 6 11 11 15 11 10 0 -5 6 -3 14 3 11 9 13 6 10 -16 -2 -16 -1 -21 2
-13 7 22 78 60 104 55 13 -2 20 -2 16 2 -3 4 2 16 11 27 15 18 14 18 -8 -2
-19 -16 -26 -19 -26 -8 0 8 4 13 9 10 10 -7 38 56 31 72 -9 23 17 25 27 2 10
-21 10 -20 6 8 -6 37 2 48 21 33 10 -9 13 -7 14 7 1 14 3 13 9 -6 7 -21 8 -19
9 17 1 34 4 42 19 41 9 -1 33 0 52 1 33 3 33 4 10 11 -25 8 -25 8 -2 9 13 1
20 6 17 11 -3 6 0 10 8 10 8 0 31 -24 51 -54 46 -70 110 -136 136 -141 11 -2
24 -6 28 -9 19 -12 34 16 43 80 32 238 57 458 52 463 -1 2 -3 -1 -3 -7 0 -7
-6 -12 -14 -12 -9 0 -20 38 -36 130 -12 71 -20 135 -18 142 3 7 8 -9 12 -37
12 -80 37 -158 47 -148 10 10 27 100 31 166 2 39 18 52 18 15z m-4060 -18 c0
-9 -83 -70 -94 -70 -18 0 -1 21 29 35 19 10 37 26 40 36 6 18 25 18 25 -1z
m4067 -202 c-3 -7 -5 -2 -5 12 0 14 2 19 5 13 2 -7 2 -19 0 -25z m43 -18 c0
-5 -5 -10 -11 -10 -5 0 -7 5 -4 10 3 6 8 10 11 10 2 0 4 -4 4 -10z m-2713 -72
c-3 -8 -6 -5 -6 6 -1 11 2 17 5 13 3 -3 4 -12 1 -19z m3065 -193 c3 -13 1 -22
-3 -19 -9 5 -13 44 -5 44 2 0 6 -11 8 -25z m-232 -37 c0 -4 -4 -8 -9 -8 -6 0
-12 4 -15 8 -3 5 1 9 9 9 8 0 15 -4 15 -9z m230 -28 c0 -16 -3 -30 -7 -30 -5
0 -8 14 -8 30 0 17 3 30 8 30 4 0 7 -13 7 -30z m-163 -52 c-3 -7 -5 -2 -5 12
0 14 2 19 5 13 2 -7 2 -19 0 -25z m-113 -96 c2 -4 -4 -8 -14 -8 -10 0 -16 4
-14 8 3 4 9 8 14 8 5 0 11 -4 14 -8z m236 -16 c-7 -7 -13 -7 -20 0 -6 6 -3 10
10 10 13 0 16 -4 10 -10z m35 -134 c-11 -12 -13 6 -7 73 l7 70 3 -69 c2 -37 0
-71 -3 -74z m-121 88 c-6 -6 -10 -3 -10 10 0 13 4 16 10 10 7 -7 7 -13 0 -20z
m43 -7 c1 -21 3 -47 4 -58 2 -45 -6 -104 -13 -92 -4 6 -5 22 -1 35 3 12 0 28
-6 35 -5 7 -8 26 -5 43 4 16 7 38 9 49 5 39 9 34 12 -12z m-77 13 c-7 -7 -13
-7 -20 0 -6 6 -3 10 10 10 13 0 16 -4 10 -10z m-132 -51 c-3 -3 -9 2 -12 12
-6 14 -5 15 5 6 7 -7 10 -15 7 -18z m132 11 c-7 -7 -13 -7 -20 0 -6 6 -3 10
10 10 13 0 16 -4 10 -10z m-80 -40 c-7 -7 -13 -7 -20 0 -6 6 -3 10 10 10 13 0
16 -4 10 -10z m-887 -33 c-3 -7 -6 -13 -8 -13 -2 0 -5 6 -8 13 -3 8 1 14 8 14
7 0 11 -6 8 -14z m737 -4 c0 -15 -5 -20 -22 -17 -34 5 -37 38 -4 38 20 0 26
-5 26 -21z m186 -1 c19 -23 19 -23 -2 -6 -16 14 -23 15 -32 6 -9 -9 -15 -9
-24 1 -11 10 -10 11 3 6 10 -4 20 -2 24 4 8 15 9 14 31 -11z m204 -65 c0 -25
-2 -44 -4 -42 -8 10 -13 89 -5 89 5 0 9 -21 9 -47z m-1685 -1172 c3 -5 2 -12
-3 -15 -5 -3 -9 1 -9 9 0 17 3 19 12 6z m693 -625 c15 -16 20 -25 12 -21 -8 5
-5 -3 8 -17 12 -13 22 -32 22 -41 0 -9 5 -19 10 -22 6 -4 8 -10 5 -14 -2 -5 5
-17 17 -27 12 -11 18 -14 15 -7 -4 6 -2 15 4 19 8 4 9 3 5 -4 -4 -7 -2 -12 4
-12 6 0 9 -4 5 -9 -3 -6 3 -15 12 -21 17 -10 17 -10 -1 -8 -26 4 -33 -22 -8
-29 23 -6 19 -33 -5 -33 -8 0 -11 5 -7 12 4 7 3 8 -4 4 -12 -7 -82 25 -99 46
-10 12 -15 49 -28 203 -2 28 -1 41 1 30 3 -11 18 -33 32 -49z m153 -259 c-13
-13 -26 -3 -16 12 3 6 11 8 17 5 6 -4 6 -10 -1 -17z m-567 -152 c-19 -14 -19
-14 0 -15 11 0 17 -3 13 -6 -3 -4 -14 -4 -23 0 -13 5 -14 9 -4 21 7 8 17 15
23 15 6 0 2 -7 -9 -15z m-245 -199 c-9 -8 -10 -7 -5 7 3 10 7 26 7 35 1 9 4 6
6 -7 3 -13 -1 -28 -8 -35z m678 -18 c-3 -8 -6 -5 -6 6 -1 11 2 17 5 13 3 -3 4
-12 1 -19z m-577 -18 c0 -5 -2 -10 -4 -10 -3 0 -8 5 -11 10 -3 6 -1 10 4 10 6
0 11 -4 11 -10z m405 -80 c-3 -5 -12 -10 -18 -10 -7 0 -6 4 3 10 19 12 23 12
15 0z m-952 -175 c-3 -9 -8 -14 -10 -11 -3 3 -2 9 2 15 9 16 15 13 8 -4z m48
-562 c-12 -20 -14 -14 -5 12 4 9 9 14 11 11 3 -2 0 -13 -6 -23z m-189 3 c10 5
10 4 1 -6 -9 -10 -15 -10 -26 -2 -8 7 -18 8 -22 4 -5 -4 -5 -1 -1 6 6 10 11
10 21 2 8 -7 20 -8 27 -4z m-837 -136 c-4 -7 -280 -9 -803 -8 l-797 3 800 5
c440 3 801 6 803 8 2 1 0 -2 -3 -8z m1413 -7 c-131 -2 -345 -2 -475 0 -131 1
-24 2 237 2 261 0 368 -1 238 -2z m970 0 c-131 -2 -345 -2 -475 0 -131 1 -24
2 237 2 261 0 368 -1 238 -2z"/>
<path d="M2065 7100 l-150 -6 162 -1 c90 0 160 3 157 8 -3 5 -8 8 -12 7 -4 -1
-74 -5 -157 -8z"/>
<path d="M1939 7078 c-5 -9 -5 -48 -1 -43 6 6 11 45 5 45 -2 0 -4 -1 -4 -2z"/>
<path d="M2054 7060 c0 -13 4 -16 10 -10 7 7 7 13 0 20 -6 6 -10 3 -10 -10z"/>
<path d="M1973 7026 c-1 -19 1 -23 4 -11 3 11 9 25 14 31 5 7 4 11 -4 11 -8 0
-13 -13 -14 -31z"/>
<path d="M1890 7026 c0 -8 4 -17 9 -20 5 -4 7 3 4 14 -6 23 -13 26 -13 6z"/>
<path d="M2014 7020 c0 -13 4 -16 10 -10 7 7 7 13 0 20 -6 6 -10 3 -10 -10z"/>
<path d="M1785 6980 c-3 -5 3 -10 15 -10 12 0 18 5 15 10 -3 6 -10 10 -15 10
-5 0 -12 -4 -15 -10z"/>
<path d="M1961 6986 c8 -8 69 -14 73 -8 2 4 -14 8 -37 9 -22 2 -38 1 -36 -1z"/>
<path d="M1853 6959 c9 -5 22 -7 27 -4 6 3 10 1 10 -4 0 -6 5 -11 11 -11 5 0
8 4 4 9 -3 5 5 12 17 14 13 2 -2 5 -32 5 -42 1 -51 -1 -37 -9z"/>
<path d="M1655 6927 c0 -18 -4 -38 -10 -46 -8 -11 -7 -13 4 -7 10 7 12 3 6
-15 -4 -13 -4 -21 1 -16 9 9 13 106 4 112 -3 2 -5 -11 -5 -28z"/>
<path d="M1800 6949 c0 -5 5 -7 10 -4 6 3 10 8 10 11 0 2 -4 4 -10 4 -5 0 -10
-5 -10 -11z"/>
<path d="M1757 6909 c-9 -5 -22 -7 -29 -3 -7 4 -8 3 -4 -4 9 -16 18 -15 42 3
22 17 17 19 -9 4z"/>
<path d="M1721 6864 c-18 -21 -6 -30 14 -11 8 9 15 18 15 21 0 11 -15 5 -29
-10z"/>
<path d="M1677 6835 c3 -8 9 -12 14 -9 12 7 11 11 -5 17 -10 4 -13 1 -9 -8z"/>
<path d="M1613 6725 c0 -22 2 -30 4 -17 2 12 2 30 0 40 -3 9 -5 -1 -4 -23z"/>
<path d="M1950 6151 c-69 -21 -141 -83 -175 -150 -24 -47 -30 -138 -15 -202
11 -45 23 -64 74 -114 43 -43 74 -65 106 -74 96 -29 224 -3 278 57 13 15 21
20 17 12 -3 -8 0 -6 9 5 8 11 20 25 25 31 5 7 7 15 4 18 -4 3 -2 6 4 6 16 0
36 115 30 174 -6 59 -15 80 -66 145 -63 80 -194 121 -291 92z"/>
<path d="M4725 4421 c-3 -5 -2 -12 3 -15 5 -3 9 1 9 9 0 17 -3 19 -12 6z"/>
<path d="M6222 5714 c-7 -8 -10 -19 -7 -24 11 -18 23 -10 23 15 0 14 -1 25 -2
25 0 -1 -7 -7 -14 -16z"/>
<path d="M6280 5650 c0 -5 5 -10 11 -10 5 0 7 5 4 10 -3 6 -8 10 -11 10 -2 0
-4 -4 -4 -10z"/>
<path d="M6305 5570 c4 -6 11 -8 16 -5 14 9 11 15 -7 15 -8 0 -12 -5 -9 -10z"/>
<path d="M6290 5506 c0 -9 5 -16 10 -16 6 0 10 4 10 9 0 6 -4 13 -10 16 -5 3
-10 -1 -10 -9z"/>
<path d="M5781 4184 c0 -11 3 -14 6 -6 3 7 2 16 -1 19 -3 4 -6 -2 -5 -13z"/>
<path d="M6373 4056 c-3 -6 -3 -8 2 -4 4 4 13 3 20 -2 8 -7 12 -5 12 3 0 16
-25 18 -34 3z"/>
<path d="M6446 3992 c-8 -14 16 -30 39 -26 10 1 25 -2 32 -8 9 -7 13 -7 13 1
0 7 4 10 8 7 5 -3 9 1 9 8 0 7 -6 13 -13 13 -7 0 -11 -4 -8 -9 3 -4 1 -8 -5
-8 -5 0 -12 6 -15 13 -5 9 -7 9 -12 -1 -5 -10 -10 -10 -24 3 -10 9 -21 12 -24
7z"/>
<path d="M6300 3980 c-16 -10 -13 -11 31 -14 18 -1 25 2 22 11 -6 15 -23 17
-23 3 0 -5 -5 -10 -11 -10 -5 0 -7 5 -4 10 8 12 4 12 -15 0z"/>
<path d="M6430 3961 c0 -6 -6 -10 -12 -8 -7 1 -12 -4 -10 -10 1 -7 -3 -13 -9
-13 -5 0 -7 -5 -3 -11 5 -8 9 -8 14 1 4 6 10 11 14 11 3 -1 6 2 5 5 0 4 5 10
11 14 9 5 9 9 1 14 -6 4 -11 2 -11 -3z"/>
<path d="M6463 3895 c0 -22 2 -30 4 -17 2 12 2 30 0 40 -3 9 -5 -1 -4 -23z"/>
<path d="M6442 3900 c0 -14 2 -19 5 -12 2 6 2 18 0 25 -3 6 -5 1 -5 -13z"/>
<path d="M6260 3879 c0 -5 5 -7 10 -4 6 3 10 8 10 11 0 2 -4 4 -10 4 -5 0 -10
-5 -10 -11z"/>
<path d="M6540 3878 c0 -4 -8 -8 -17 -9 -15 0 -15 -2 2 -9 11 -5 27 -9 35 -9
9 0 8 4 -5 9 -17 7 -17 9 -2 9 21 1 23 18 2 18 -8 0 -15 -4 -15 -9z"/>
<path d="M6225 3790 c3 -5 8 -10 11 -10 2 0 4 5 4 10 0 6 -5 10 -11 10 -5 0
-7 -4 -4 -10z"/>
<path d="M6490 3790 c0 -6 7 -10 15 -10 8 0 15 2 15 4 0 2 -7 6 -15 10 -8 3
-15 1 -15 -4z"/>
<path d="M6615 3789 c-4 -6 -4 -13 -1 -16 3 -3 1 -12 -4 -18 -7 -9 -6 -16 4
-24 10 -9 16 -8 25 3 7 8 20 12 29 9 14 -4 15 -3 2 5 -9 7 -18 8 -26 1 -15
-12 -22 -2 -19 29 2 24 -1 27 -10 11z"/>
<path d="M6220 3758 c0 -7 5 -20 10 -28 8 -12 10 -11 10 7 0 12 -4 25 -10 28
-5 3 -10 0 -10 -7z"/>
<path d="M6693 3715 c0 -22 2 -30 4 -17 2 12 2 30 0 40 -3 9 -5 -1 -4 -23z"/>
<path d="M6663 3715 c0 -8 4 -12 9 -9 5 3 6 10 3 15 -9 13 -12 11 -12 -6z"/>
<path d="M6450 3696 c7 -7 13 -7 20 0 6 6 3 10 -10 10 -13 0 -16 -4 -10 -10z"/>
<path d="M6375 3671 c-6 -11 13 -26 22 -17 4 3 1 6 -6 6 -7 0 -9 5 -6 10 3 6
4 10 1 10 -3 0 -7 -4 -11 -9z"/>
<path d="M6510 3655 c-7 -8 -17 -12 -24 -8 -8 5 -8 3 0 -8 13 -18 12 -45 -2
-42 -6 1 -11 -4 -11 -11 0 -6 10 -12 22 -12 19 0 27 18 15 34 -8 9 -4 30 8 45
8 9 13 17 10 17 -3 0 -11 -7 -18 -15z"/>
<path d="M6351 3644 c0 -11 3 -14 6 -6 3 7 2 16 -1 19 -3 4 -6 -2 -5 -13z"/>
<path d="M6644 3628 c0 -17 2 -17 12 -4 12 17 24 11 24 -11 0 -8 -5 -11 -12
-7 -7 4 -8 3 -4 -4 11 -18 37 -1 34 21 -4 29 -54 33 -54 5z"/>
<path d="M6390 3631 c0 -6 4 -13 10 -16 6 -3 7 1 4 9 -7 18 -14 21 -14 7z"/>
<path d="M6200 3620 c0 -5 9 -10 20 -10 11 0 20 5 20 10 0 6 -9 10 -20 10 -11
0 -20 -4 -20 -10z"/>
<path d="M6365 3610 c-4 -6 -3 -16 3 -22 13 -13 23 4 13 21 -7 10 -10 10 -16
1z"/>
<path d="M6533 3605 c0 -8 4 -12 9 -9 5 3 6 10 3 15 -9 13 -12 11 -12 -6z"/>
<path d="M6443 3595 c0 -8 4 -12 9 -9 5 3 6 10 3 15 -9 13 -12 11 -12 -6z"/>
<path d="M6594 3588 c-3 -4 -4 -8 -2 -9 25 -6 35 -5 35 5 0 14 -25 17 -33 4z"/>
<path d="M6647 3577 c-3 -8 -1 -20 5 -28 8 -11 9 -11 5 3 -3 9 -1 18 6 21 8 2
8 5 0 10 -6 4 -13 1 -16 -6z"/>
<path d="M6366 3553 c-6 -14 -5 -15 5 -6 7 7 10 15 7 18 -3 3 -9 -2 -12 -12z"/>
<path d="M6404 3548 l-19 -23 23 19 c21 18 27 26 19 26 -2 0 -12 -10 -23 -22z"/>
<path d="M6692 3540 c0 -19 2 -27 5 -17 2 9 2 25 0 35 -3 9 -5 1 -5 -18z"/>
<path d="M6225 3539 c2 -22 25 -51 25 -31 0 7 -4 12 -10 12 -5 0 -7 6 -4 14 3
8 1 16 -4 20 -5 3 -8 -4 -7 -15z"/>
<path d="M6335 3531 c-3 -5 -2 -12 3 -15 5 -3 9 1 9 9 0 17 -3 19 -12 6z"/>
<path d="M6210 3506 c0 -2 8 -10 18 -17 15 -13 16 -12 3 4 -13 16 -21 21 -21
13z"/>
<path d="M6566 3471 c-4 -5 -2 -12 3 -15 5 -4 12 -2 15 3 4 5 2 12 -3 15 -5 4
-12 2 -15 -3z"/>
<path d="M6650 3465 c-7 -8 -11 -15 -9 -16 37 -7 40 -7 30 5 -6 7 -8 16 -4 19
3 4 4 7 1 7 -3 0 -11 -7 -18 -15z"/>
<path d="M5651 3444 c0 -11 3 -14 6 -6 3 7 2 16 -1 19 -3 4 -6 -2 -5 -13z"/>
<path d="M6250 3445 c0 -2 6 -8 13 -14 10 -8 14 -7 14 2 0 8 -6 14 -14 14 -7
0 -13 -1 -13 -2z"/>
<path d="M6246 3406 c5 -13 4 -17 -4 -12 -7 4 -12 2 -12 -3 0 -14 17 -14 26 0
3 6 1 16 -5 22 -9 9 -10 7 -5 -7z"/>
<path d="M6680 3411 c0 -6 4 -13 10 -16 6 -3 7 1 4 9 -7 18 -14 21 -14 7z"/>
<path d="M6202 3374 c-7 -8 -8 -14 -3 -14 10 0 25 19 20 25 -2 1 -10 -3 -17
-11z"/>
<path d="M6345 3359 c-4 -6 -5 -12 -2 -15 2 -3 7 2 10 11 7 17 1 20 -8 4z"/>
<path d="M6163 3080 c0 -25 2 -35 4 -22 2 12 2 32 0 45 -2 12 -4 2 -4 -23z"/>
<path d="M4896 2778 c3 -5 10 -6 15 -3 13 9 11 12 -6 12 -8 0 -12 -4 -9 -9z"/>
<path d="M4970 2781 c0 -6 4 -13 10 -16 6 -3 7 1 4 9 -7 18 -14 21 -14 7z"/>
<path d="M4926 1502 c-2 -4 4 -8 14 -8 10 0 16 4 14 8 -3 4 -9 8 -14 8 -5 0
-11 -4 -14 -8z"/>
<path d="M6610 4100 c0 -5 5 -10 10 -10 6 0 10 5 10 10 0 6 -4 10 -10 10 -5 0
-10 -4 -10 -10z"/>
<path d="M5786 2026 c7 -19 20 -21 30 -3 4 6 4 9 -1 5 -4 -4 -14 -3 -22 4 -11
8 -12 7 -7 -6z"/>
</g>
</svg>
